<svg width="200" height="300" viewBox="0 0 200 300" fill="none" xmlns="http://www.w3.org/2000/svg">
<g clip-path="url(#clip0_11_1960)">
<path d="M77.91 273.46L84.77 251.27L66.2 246.6L36.17 218.44L35 199.82L52.76 176.51L66.65 173.09L67.22 166.46L96.51 148.76L96.46 147.33L72.55 122.95L71.97 111.94L62.96 108.93L63.12 84.92L71.93 77.57L72.21 76.17L66.62 64.62L86.12 43.94L91.9 30.08L103.2 25L165 63.04L149.84 101.46L142.46 102.29L138.58 114.62L144.79 115.14L159.36 121.49L150.51 188.98L127.18 230.18L115.72 237.7L97.97 267.56L87.6 275L77.91 273.46Z" fill="#F0F9F3" stroke="#247748" stroke-width="2" stroke-linejoin="round"/>
<path d="M89.87 232.84L113.67 235.61L95.88 265.52L86.92 271.96L81.59 271.11L88.36 249.18L85.11 248.37L89.87 232.84Z" fill="#6DBB8B" stroke="#F0F9F3" stroke-width="2" stroke-linejoin="round"/>
<path d="M99.67 191.54L104.92 196.17L105.58 200.51L118.22 208.92L123.65 208.8L126.4 214.38L132.53 214.98L125.09 228.11L113.67 235.61L89.87 232.84L90.82 222.17L81.18 213.09L99.67 191.54Z" fill="#6DBB8B" stroke="#F0F9F3" stroke-width="2" stroke-linejoin="round"/>
</g>
<defs>
<clipPath id="clip0_11_1960">
<rect width="132" height="252" fill="white" transform="translate(34 24)"/>
</clipPath>
</defs>
</svg>
