<svg width="284" height="112" viewBox="0 0 284 112" fill="none" xmlns="http://www.w3.org/2000/svg">
<g clip-path="url(#clip0_5_766)">
<path d="M97.96 98.21H29.97L35.87 75.82L46.79 56L80.4 54.46L93.44 75.94L97.96 98.21Z" fill="white"/>
<path d="M76.51 10.05L129.9 102.68H284V10.05H76.51Z" fill="#495E88"/>
<path d="M19.92 100.67L64.6 23.04V23.07L109.38 100.64L109.4 100.61L19.94 100.67H19.92ZM90.04 75.14L90 75.12C90 75.12 84.64 69.07 80.05 68.52L79.23 68.49C79.23 68.49 78.66 67.48 79.11 67.03C79.56 66.58 81.67 66 81.22 63.2C81.22 63.2 82.39 61.59 80.98 61.41C80.98 61.41 81.36 61.11 81.32 60.87C81.01 58.97 80.44 55.87 75.29 56.69C73.53 56.97 73.28 58.41 73 58.4C71.87 58.34 71.58 62.09 71.92 63.11C71.98 63.28 72.17 63.29 72.24 63.4C72.24 63.4 71.15 64.11 72.84 65.13C72.84 65.13 73.65 67.22 76.11 67.6C76.11 67.6 76.31 68.38 76.16 68.74H76.18C73.76 69.26 67.92 74.24 66.33 76.72C66.33 76.72 65.82 77.38 65.37 78.14C65.04 77.5719 64.676 77.0243 64.28 76.5C62.64 73.95 54.91 68.37 53.95 68.26C53.37 68.19 53.86 67.06 53.86 67.06C55.04 66.91 56.24 65.85 56.24 65.85C56.59 66.82 58.85 68.5 58.85 68.5C58.85 69.16 57.56 69.6 57.56 69.6C57.56 70.64 59.34 70.88 59.34 70.88C59.05 70.07 59.61 69.03 59.61 69.03C60.42 69.77 60.6 70.45 60.6 70.45C60.56 69.51 60.13 69.1 60.07 69.04C60.47 69.43 61.64 69.58 61.64 69.58C61.1 69.31 61.25 69.45 60.22 68.78C61.37 69.17 61.99 68.71 61.99 68.71C60.44 68.63 60.1 68.37 60.1 68.37C60.25 67.9 61.57 67.36 61.57 67.36C60.98 66.39 59.68 66.14 59.68 66.14C59.83 67.08 59.38 67.74 59.38 67.74C58.27 67.12 57.31 64.07 57.31 64.07V63.82C59.25 58.07 54.23 57.5 54.23 57.5C48.92 56.68 48.57 62.54 48.57 62.54C47.79 63.77 45.39 64.45 45.39 64.45C44.88 63.94 45.62 63.09 45.62 63.09C44.18 62.68 42.86 63.64 42.86 63.64C43.84 64.04 44.23 64.79 44.23 64.79C43.18 65.13 42.76 65.01 42.76 65.01C43.52 65.34 44.03 65.19 44.03 65.19C43.82 65.4 43.05 65.94 43.05 65.94C43.57 66 44.32 65.39 44.32 65.39C43.61 66.09 43.83 66.69 43.83 66.69C44.5 65.48 44.72 65.48 44.72 65.48C45.19 66.22 44.87 67.2 44.87 67.2C46.02 67.32 46.95 66.09 46.95 66.09C46.28 65.72 45.83 65.24 45.83 65.24C47.51 65.31 49.2 64.59 49.2 64.59C49.84 65.88 51.26 66.67 51.26 66.67C51.86 67.44 51.29 68.07 51.29 68.07C46.57 68.63 39.93 74.83 39.93 74.83L39.89 74.85C38.05 75.87 36.85 77.64 37.85 78.04C39.38 78.65 40.7 75.52 40.7 75.52C44.55 73.93 49.47 70.86 49.47 70.86C48.89 71.93 48.7 75.88 48.7 75.88C47.76 77.19 43.5 81.51 43.62 81.7C44.48 83.03 47.8 83.67 47.8 83.67C48.05 86.55 47.3 93.91 47.3 93.91C44.79 94.3 42.73 95.46 43 95.94C43.56 96.94 47.51 95.33 47.55 95.79C47.59 96.24 48.64 96.06 48.64 96.06C49.68 93.85 50.26 84.4 50.26 84.4C51.6 84.66 52.92 84.5 52.92 84.5C53.34 92.55 55.08 96.2 55.08 96.2C55.74 96.25 56.13 96.12 56.3 95.98C56.31 95.99 56.32 96.01 56.34 96.02C57.3 96.61 60.39 96.21 60.44 95.84C60.52 95.16 56.45 94.34 56.45 94.34C55.71 93.6 55.36 84.08 55.36 84.08C55.36 84.08 57.63 83.69 58.01 83.5C58.04 83.49 58.83 83.17 58.83 83.17C58.17 81.83 54.32 76.14 54.32 76.14C54.52 75.93 54.58 71.54 54.58 71.54C57.11 73.25 62.93 76.96 62.93 76.96C62.93 77.24 63.55 79.76 64.8 80.24C64.86 80.31 64.95 80.36 65.07 80.4C66.76 80.82 67.46 77.29 67.88 77.25C69.47 77.12 72.73 73.13 73.64 72.97C74.38 72.84 72.82 80.61 73.46 80.62C73.9 80.62 74 80.61 74 80.61C74 80.61 73.82 85.26 73.98 85.51C74.14 85.77 75.14 85.76 75.14 85.76C75.14 85.76 75.16 91.19 75.07 93.19C75.07 93.19 70.53 94.52 70.61 95.56C70.65 96.14 73.92 96.25 75.01 95.75H75.02C75.19 95.89 76.47 95.85 77.11 95.79C77.11 95.79 77.21 93.71 77.62 85.88C77.62 85.88 78.1 85.91 78.49 85.85C78.63 85.83 78.54 83.92 78.63 83.91C78.75 83.89 78.8 85.79 78.95 85.81C79.11 85.83 79.47 85.85 79.69 85.77V85.78C80.56 93.63 80.78 96 80.78 96C81.42 96.02 82.7 95.99 82.86 95.84H82.87C83.99 96.29 87.24 96 87.25 95.41C87.27 94.37 82.67 93.28 82.67 93.28C82.47 91.29 82.17 85.48 82.17 85.48H82.18C82.18 85.48 83.22 85.3 83.44 84.93C83.44 84.93 82.94 80.95 82.81 80.27C82.84 80.28 82.95 80.27 83.25 80.18C83.76 80.03 81.23 72.4 82.02 72.08C82.57 71.86 86.85 76.39 88.96 76.09C88.96 76.09 90.54 79.42 92.16 78.57C93.11 78.07 91.83 76.14 90.04 75.14Z" fill="#495E88"/>
<path d="M111.9 104.92L4.08 104.91L0 112L0.03 111.99L115.93 111.92L111.9 104.92Z" fill="#FFDC68"/>
<path d="M66.86 18.52L71 11.35L129.05 111.91L120.69 111.92L66.86 18.52Z" fill="#FFDC68"/>
<path d="M6.46 100.78H14.68L68.61 7.22L64.47 0.04V0L6.46 100.78Z" fill="#FFDC68"/>
<path d="M243.8 80.97C244.97 80.97 246.1 81.03 246.87 81.85C247.53 82.54 247.74 83.47 247.74 84.25C247.74 85.01 247.52 86.28 246.52 86.95C245.72 87.51 244.53 87.51 243.84 87.51H242.92V91.69H241.16V80.97H243.8ZM242.92 82.34V86.1H243.8C244.62 86.1 245.87 86.1 245.87 84.22C245.87 83.9 245.84 83.38 245.5 82.9C245.1 82.34 244.57 82.34 243.8 82.34H242.92Z" fill="white"/>
<path d="M234.22 80.97V87.63C234.22 89.06 234.22 90.43 236 90.43C237.75 90.43 237.75 89.14 237.75 87.6V80.98H239.34V87.52C239.34 89.08 239.31 90.43 238.23 91.23C237.81 91.54 237.16 91.89 235.9 91.89C232.53 91.89 232.48 89.53 232.48 87.63V80.97H234.22Z" fill="white"/>
<path d="M231.04 86.34C231.04 88.54 230.54 91.89 227.22 91.89C224.01 91.89 223.35 88.84 223.35 86.34C223.35 83.88 223.99 80.78 227.2 80.78C230.4 80.78 231.04 83.83 231.04 86.34ZM225.65 83.33C225.25 84.25 225.22 85.68 225.22 86.34C225.22 86.98 225.27 88.41 225.65 89.33C225.95 90.02 226.37 90.42 227.22 90.42C228.12 90.42 228.5 89.87 228.74 89.33C229.14 88.38 229.17 86.92 229.17 86.34C229.17 85.6 229.12 84.23 228.74 83.33C228.5 82.8 228.13 82.24 227.2 82.24C226.29 82.24 225.9 82.76 225.65 83.33Z" fill="white"/>
<path d="M218.77 80.97C219.78 80.97 220.5 81.11 221.07 81.52C221.65 81.94 222.19 82.76 222.19 84.03C222.19 85.98 221 86.6 220.54 86.84L222.58 91.7H220.67L218.98 87.21H217.31V91.7H215.55V80.97H218.77ZM217.31 82.34V85.85H218.68C219.95 85.85 220.45 85.08 220.45 84.02C220.45 82.35 219.07 82.35 218.7 82.35H217.31V82.34Z" fill="white"/>
<path d="M213.89 86.2V91.78H212.94L212.72 90.41C212.43 90.91 211.84 91.89 210.15 91.89C207.12 91.89 206.33 88.76 206.33 86.49C206.33 84.53 206.78 80.78 210.34 80.78C212.81 80.78 213.52 82.39 213.84 84.04L212.23 84.44C212.01 83.44 211.73 82.24 210.35 82.24C208.7 82.24 208.2 83.98 208.2 86.32C208.2 88.14 208.49 90.42 210.38 90.42C212.23 90.42 212.23 88.31 212.23 87.6H210.32V86.2H213.89Z" fill="white"/>
<path d="M201.72 80.97V82.39H197.37V85.47H200.79V86.89H197.37V90.25H201.8V91.7H195.61V80.97H201.72Z" fill="white"/>
<path d="M194.31 88.32C194.18 89.19 193.78 91.89 190.81 91.89C187.33 91.89 186.94 88.14 186.94 86.38C186.94 84.68 187.28 80.79 190.84 80.79C193.83 80.79 194.2 83.54 194.32 84.46L192.67 84.69C192.56 83.79 192.35 82.26 190.87 82.26C189.02 82.26 188.81 84.74 188.81 86.44C188.81 88.37 189.16 90.44 190.87 90.44C191.96 90.44 192.41 89.67 192.67 88.11L194.31 88.32Z" fill="white"/>
<path d="M180.45 80.97L183.98 88.7V80.97H185.46V91.7H183.81L179.84 83.11V91.7H178.36V80.97H180.45Z" fill="white"/>
<path d="M174.66 80.97L177.52 91.7H175.72L175.05 89.01H171.94L171.28 91.7H169.58L172.68 80.97H174.66ZM174.69 87.61L173.49 82.69L172.27 87.61H174.69Z" fill="white"/>
<path d="M165.57 80.97C166.58 80.97 167.3 81.11 167.86 81.52C168.44 81.94 168.98 82.76 168.98 84.03C168.98 85.98 167.79 86.6 167.33 86.84L169.37 91.7H167.46L165.77 87.21H164.1V91.7H162.33V80.97H165.57ZM164.11 82.34V85.85H165.47C166.74 85.85 167.24 85.08 167.24 84.02C167.24 82.35 165.86 82.35 165.49 82.35H164.11V82.34Z" fill="white"/>
<path d="M155.41 80.97V87.63C155.41 89.06 155.41 90.43 157.19 90.43C158.94 90.43 158.94 89.14 158.94 87.6V80.98H160.53V87.52C160.53 89.08 160.5 90.43 159.42 91.23C159 91.54 158.34 91.89 157.09 91.89C153.72 91.89 153.67 89.53 153.67 87.63V80.97H155.41Z" fill="white"/>
<path d="M150.57 83.9C150.23 82.9 149.78 82.24 148.68 82.24C147.54 82.24 147.22 83.11 147.22 83.59C147.22 84.55 148.09 84.88 149.35 85.38C150.59 85.85 152.35 86.52 152.35 88.64C152.35 90.18 151.26 91.89 148.76 91.89C145.76 91.89 145.23 89.62 145.05 88.9L146.62 88.45C146.73 88.93 147.05 90.43 148.8 90.43C150.28 90.43 150.53 89.38 150.53 88.89C150.53 87.88 149.66 87.49 148.7 87.14C147.51 86.69 147.01 86.5 146.44 86C145.94 85.57 145.48 84.81 145.48 83.81C145.48 82.35 146.51 80.79 148.77 80.79C151.29 80.79 151.85 82.64 152.08 83.38L150.57 83.9Z" fill="white"/>
<path d="M138.87 80.97L142.4 88.7V80.97H143.88V91.7H142.23L138.26 83.11V91.7H136.78V80.97H138.87Z" fill="white"/>
<path d="M133.17 80.97H134.94V91.7H133.17V80.97Z" fill="white"/>
<path d="M265.61 68.82C265.27 67.82 264.82 67.16 263.72 67.16C262.58 67.16 262.26 68.03 262.26 68.51C262.26 69.47 263.13 69.8 264.4 70.3C265.64 70.77 267.4 71.44 267.4 73.56C267.4 75.1 266.31 76.81 263.8 76.81C260.8 76.81 260.27 74.54 260.09 73.82L261.66 73.37C261.77 73.85 262.09 75.35 263.84 75.35C265.32 75.35 265.57 74.31 265.57 73.81C265.57 72.8 264.7 72.41 263.74 72.06C262.55 71.61 262.05 71.42 261.48 70.92C260.98 70.49 260.52 69.73 260.52 68.73C260.52 67.27 261.55 65.71 263.81 65.71C266.33 65.71 266.89 67.56 267.12 68.3L265.61 68.82Z" fill="white"/>
<path d="M256 65.9V75.12H259.78V76.62H254.23V65.9H256Z" fill="white"/>
<path d="M252.7 71.27C252.7 73.47 252.2 76.82 248.88 76.82C245.67 76.82 245.01 73.77 245.01 71.27C245.01 68.81 245.65 65.71 248.86 65.71C252.06 65.7 252.7 68.76 252.7 71.27ZM247.31 68.26C246.91 69.18 246.88 70.61 246.88 71.27C246.88 71.91 246.93 73.35 247.31 74.26C247.62 74.95 248.03 75.35 248.88 75.35C249.78 75.35 250.16 74.8 250.41 74.26C250.81 73.31 250.84 71.85 250.84 71.27C250.84 70.53 250.79 69.16 250.41 68.26C250.17 67.73 249.8 67.17 248.87 67.17C247.95 67.17 247.57 67.68 247.31 68.26Z" fill="white"/>
<path d="M243.84 71.27C243.84 73.47 243.34 76.82 240.02 76.82C236.81 76.82 236.15 73.77 236.15 71.27C236.15 68.81 236.79 65.71 240 65.71C243.2 65.7 243.84 68.76 243.84 71.27ZM238.45 68.26C238.05 69.18 238.02 70.61 238.02 71.27C238.02 71.91 238.07 73.35 238.45 74.26C238.75 74.95 239.17 75.35 240.02 75.35C240.92 75.35 241.3 74.8 241.54 74.26C241.94 73.31 241.97 71.85 241.97 71.27C241.97 70.53 241.92 69.16 241.54 68.26C241.3 67.73 240.93 67.17 240 67.17C239.09 67.17 238.7 67.68 238.45 68.26Z" fill="white"/>
<path d="M229.68 65.9V70.35H232.84V65.9H234.61V76.62H232.84V71.85H229.68V76.62H227.92V65.9H229.68Z" fill="white"/>
<path d="M226.61 73.24C226.48 74.11 226.08 76.81 223.11 76.81C219.63 76.81 219.24 73.06 219.24 71.3C219.24 69.6 219.58 65.7 223.14 65.7C226.13 65.7 226.5 68.45 226.62 69.37L224.97 69.6C224.86 68.7 224.65 67.17 223.17 67.17C221.32 67.17 221.12 69.65 221.12 71.35C221.12 73.28 221.47 75.35 223.17 75.35C224.26 75.35 224.71 74.58 224.97 73.02L226.61 73.24Z" fill="white"/>
<path d="M216.42 68.82C216.08 67.82 215.63 67.16 214.53 67.16C213.39 67.16 213.07 68.03 213.07 68.51C213.07 69.47 213.94 69.8 215.21 70.3C216.45 70.77 218.21 71.44 218.21 73.56C218.21 75.1 217.12 76.81 214.61 76.81C211.61 76.81 211.08 74.54 210.9 73.82L212.47 73.37C212.58 73.85 212.9 75.35 214.65 75.35C216.13 75.35 216.38 74.31 216.38 73.81C216.38 72.8 215.51 72.41 214.55 72.06C213.36 71.61 212.86 71.42 212.29 70.92C211.79 70.49 211.33 69.73 211.33 68.73C211.33 67.27 212.36 65.71 214.62 65.71C217.14 65.71 217.7 67.56 217.93 68.3L216.42 68.82Z" fill="white"/>
<path d="M201.36 65.9L203.32 70.37L205.31 65.9H207.01L204.04 72.09V76.62H202.28V72.09L199.43 65.9H201.36Z" fill="white"/>
<path d="M198.72 65.9V67.31H194.37V70.4H197.79V71.81H194.37V75.17H198.8V76.62H192.6V65.9H198.72Z" fill="white"/>
<path d="M189.17 68.82C188.83 67.82 188.38 67.16 187.28 67.16C186.14 67.16 185.82 68.03 185.82 68.51C185.82 69.47 186.69 69.8 187.96 70.3C189.2 70.77 190.96 71.44 190.96 73.56C190.96 75.1 189.87 76.81 187.36 76.81C184.36 76.81 183.83 74.54 183.65 73.82L185.22 73.37C185.33 73.85 185.65 75.35 187.4 75.35C188.88 75.35 189.13 74.31 189.13 73.81C189.13 72.8 188.26 72.41 187.3 72.06C186.11 71.61 185.61 71.42 185.04 70.92C184.54 70.49 184.08 69.73 184.08 68.73C184.08 67.27 185.11 65.71 187.37 65.71C189.89 65.71 190.45 67.56 190.68 68.3L189.17 68.82Z" fill="white"/>
<path d="M179.22 65.9C180.23 65.9 180.95 66.05 181.51 66.45C182.09 66.87 182.63 67.69 182.63 68.96C182.63 70.91 181.44 71.53 180.98 71.77L183.02 76.63H181.11L179.42 72.14H177.75V76.63H175.98V65.9H179.22ZM177.75 67.26V70.76H179.11C180.38 70.76 180.88 69.99 180.88 68.93C180.88 67.26 179.5 67.26 179.13 67.26H177.75Z" fill="white"/>
<path d="M174.88 65.9V67.31H170.53V70.4H173.95V71.81H170.53V75.17H174.96V76.62H168.77V65.9H174.88Z" fill="white"/>
<path d="M166.9 65.9V72.57C166.9 74.73 166.9 76.82 164.09 76.82C163.59 76.82 163.29 76.76 162.71 76.63V75.17C162.97 75.23 163.29 75.32 163.75 75.32C165.1 75.32 165.13 74.5 165.13 72.59V65.9H166.9Z" fill="white"/>
<path d="M150.08 65.9L151.52 73.94L153.19 65.9H154.73L156.39 73.94L157.91 65.9H159.4L157.16 76.65H155.55L153.86 68.77L152.19 76.65H150.57L148.26 65.9H150.08Z" fill="white"/>
<path d="M148.15 65.9V67.31H143.8V70.4H147.22V71.81H143.8V75.17H148.23V76.62H142.03V65.9H148.15Z" fill="white"/>
<path d="M135.19 65.9L138.73 73.63V65.9H140.2V76.62H138.55L134.58 68.03V76.62H133.11V65.9H135.19Z" fill="white"/>
<path d="M265.58 32.63C265.69 33.34 265.74 34.31 264.93 34.31C264.28 34.31 263.96 33.66 263.79 33.39C262.22 30.13 258.15 23.73 250.62 23.73C241.84 23.73 238.65 32.9 238.65 39.74C238.65 49.51 244.18 56.02 250.46 56.02C252.74 56.02 255.77 55.04 257.02 53.47C257.83 52.55 257.89 51.52 257.89 50.11C257.89 43.82 257.62 42.95 254.37 42.51C252.26 42.24 252.04 42.13 252.04 41.53C252.04 40.99 252.2 40.77 252.96 40.77C254.32 40.77 258.98 40.77 260.71 40.72C262.06 40.67 267.92 40.5 269.11 40.5C269.38 40.5 269.98 40.5 269.98 41.15C269.98 41.69 269.71 41.75 268.73 41.96C265.59 42.67 265.42 42.72 265.26 45.22C265.15 46.47 264.88 52.98 264.82 53.04C264.55 53.42 261.95 54.78 260.49 55.43C256.8 57.06 252.96 57.98 248.95 57.98C238.28 57.98 229.66 51.25 229.66 40.5C229.66 31.82 235.57 21.78 249.28 21.78C252.53 21.78 255.19 22.21 261.04 24.76C261.2 24.87 261.69 25.09 262.18 25.09C262.56 25.09 262.67 24.82 263.21 23.84C263.32 23.57 263.64 23.3 263.97 23.3C264.67 23.3 264.78 24.17 264.84 24.98L265.58 32.63Z" fill="#FFDC68"/>
<path d="M213.29 22.32C214.86 22.37 216.43 22.43 216.97 22.43C217.62 22.43 219.52 22.38 221.36 22.32C223.15 22.27 224.83 22.21 224.94 22.21C225.27 22.21 225.97 22.21 225.97 22.97C225.97 23.57 225.64 23.62 223.86 23.84C222.18 24.06 221.42 24.98 221.1 27.59C220.83 29.92 220.78 34.43 220.78 36.87C220.78 40.78 220.78 49.19 221.32 52.66C221.64 54.78 222.19 56.13 224.79 56.13C225.33 56.13 226.09 56.13 226.09 56.84C226.09 57.76 224.9 57.71 224.68 57.71C224.14 57.71 222.46 57.66 220.73 57.55C219.05 57.44 217.37 57.39 216.72 57.39C216.12 57.39 214.28 57.44 212.6 57.55C210.92 57.6 209.4 57.71 209.4 57.71C208.97 57.71 208.43 57.55 208.43 56.95C208.43 56.41 208.86 56.35 209.89 56.14C211.57 55.76 212.49 55.22 212.81 53.81C213.35 51.48 213.35 45.72 213.35 38.88C213.35 34.1 213.35 26.99 212.48 25.15C211.94 23.96 210.96 23.85 209.5 23.74C209.12 23.74 208.52 23.58 208.52 22.93C208.52 22.22 209.22 22.22 209.5 22.22C210.09 22.21 211.72 22.27 213.29 22.32Z" fill="#FFDC68"/>
<path d="M203.1 30.03C203.15 30.19 203.21 30.79 203.21 30.9C203.21 30.95 203.16 31.61 202.56 31.61C201.75 31.61 201.69 31.45 200.88 29.77C199.53 27 195.73 23.64 191.83 23.64C188.69 23.64 185.87 25.59 185.87 28.8C185.87 32.11 189.61 33.63 193.57 34.72C197.15 35.7 205.65 38.14 205.65 46.28C205.65 52.14 201.15 58 192.97 58C188.47 58 185.33 56.32 183.32 55.34C182.83 55.94 182.83 55.99 182.29 57.19C182.13 57.51 181.91 58 181.37 58C180.67 58 180.61 57.51 180.56 56.59L179.8 46.98C179.75 46.22 179.69 45.41 180.5 45.41C181.04 45.41 181.31 45.95 181.64 46.71C183.75 51.6 187.33 56.04 192.48 56.04C197.14 56.04 199.42 52.62 199.42 49.91C199.42 45.95 195.52 44.21 191.29 42.85C186.09 41.17 184.35 40.08 183 38.78C181.05 36.88 179.8 34.17 179.8 31.72C179.8 27.27 183.32 21.73 191.77 21.73C194.48 21.73 196.32 22.27 199.74 23.52C200.12 23.14 200.17 23.03 200.61 22.11C200.77 21.78 200.99 21.62 201.31 21.62C202.07 21.62 202.12 22.16 202.18 22.76L203.1 30.03Z" fill="#FFDC68"/>
<path d="M172.33 44.73C172.38 50.1 171.52 52.82 168.86 55.2C166.48 57.32 163.44 58.13 160.89 58.13C156.07 58.13 152.82 55.47 152.82 52.11C152.82 50.21 154.23 47.99 157.05 47.99C159.65 47.99 160.79 49.84 160.79 51.25C160.79 51.9 160.57 52.39 160.41 52.66C159.54 54.29 159.49 54.45 159.49 54.94C159.49 55.97 160.57 56.24 161.17 56.24C164.37 56.24 165.02 53.26 165.02 44.3C165.02 41.15 165.02 28.56 164.64 26.17C164.31 24.22 162.64 23.78 160.63 23.73C159.93 23.73 159.49 23.57 159.49 22.97C159.49 22.26 160.03 22.21 160.63 22.21C161.17 22.21 162.74 22.26 164.37 22.32C165.94 22.37 167.57 22.48 168.16 22.48C168.75 22.43 170.44 22.37 172.06 22.37C173.69 22.37 175.31 22.26 175.85 22.26C176.39 22.26 177.1 22.37 177.1 23.02C177.1 23.73 176.45 23.78 175.91 23.78C173.74 23.94 173.09 24.97 172.88 25.95C172.28 28.55 172.23 36.15 172.28 39.25L172.33 44.73Z" fill="#FFDC68"/>
<path d="M146.91 45.01C146.91 46.37 146.8 56.68 146.58 57.22C146.47 57.49 146.09 57.76 145.82 57.76C145.44 57.76 145.11 57.6 144.41 56.89C137.58 50.05 126.42 37.19 122.57 32.47C122.52 34.21 122.46 46.15 122.57 49.19C122.62 51.41 122.9 53.91 124.63 54.94C126.26 55.92 127.23 56.08 128.04 56.08C128.37 56.08 128.91 56.08 128.91 56.79C128.91 57.39 128.42 57.6 127.99 57.6C127.39 57.6 126.69 57.49 126.42 57.49C125.55 57.38 124.47 57.27 122.41 57.27C121.22 57.27 118.67 57.32 117.26 57.43C116.94 57.48 115.42 57.65 115.09 57.65C114.17 57.65 114.06 56.94 114.06 56.78C114.06 56.13 114.6 56.07 115.74 55.96C118.45 55.69 120.24 54.93 120.24 49.07C120.24 45.38 120.24 36.53 120.13 33.71C119.86 26 115.74 24.1 113.95 23.78C113.35 23.67 112.87 23.51 112.87 22.97C112.87 22.21 113.68 22.05 114.01 22.05C114.44 22.05 116.56 22.16 116.94 22.16C118.35 22.16 120.89 22.21 123.33 22.27C128.48 28.19 138.61 39.37 144.46 45.44C144.52 44.84 144.57 33.72 144.41 29.92C144.3 27.8 144.14 24.11 139.1 23.68C138.72 23.63 138.12 23.46 138.12 22.87C138.12 22.54 138.39 22.11 139.1 22.11C139.75 22.11 140.94 22.16 142.14 22.22C143.33 22.27 144.63 22.33 145.44 22.33C146.2 22.33 147.61 22.28 148.91 22.17C150.21 22.12 151.4 22.06 151.62 22.06C152.06 22.06 152.65 22.28 152.65 22.87C152.65 23.57 151.95 23.68 151.3 23.74C146.8 24.12 146.75 28.41 146.75 30.04L146.91 45.01Z" fill="#FFDC68"/>
</g>
<defs>
<clipPath id="clip0_5_766">
<rect width="284" height="112" fill="white"/>
</clipPath>
</defs>
</svg>
