<svg width="176" height="56" viewBox="0 0 176 56" fill="none" xmlns="http://www.w3.org/2000/svg">
<g clip-path="url(#clip0_11_1609)">
<path d="M161.528 20.8266C161.637 21.5301 161.686 22.4911 160.884 22.4911C160.24 22.4911 159.923 21.8471 159.754 21.5796C158.199 18.3496 154.166 12.0085 146.706 12.0085C138.006 12.0085 134.846 21.0941 134.846 27.8712C134.846 37.5513 140.325 44.0014 146.547 44.0014C148.806 44.0014 151.808 43.0304 153.047 41.4749C153.849 40.5633 153.909 39.5428 153.909 38.1458C153.909 31.9136 153.641 31.0516 150.421 30.6157C148.33 30.3482 148.112 30.2392 148.112 29.6447C148.112 29.1097 148.271 28.8917 149.024 28.8917C150.371 28.8917 154.989 28.8917 156.703 28.8422C158.04 28.7926 163.846 28.6242 165.025 28.6242C165.293 28.6242 165.887 28.6242 165.887 29.2682C165.887 29.8032 165.62 29.8627 164.649 30.0708C161.538 30.7742 161.369 30.8238 161.211 33.3008C161.102 34.5393 160.834 40.9894 160.775 41.0488C160.507 41.4253 157.931 42.7728 156.485 43.4168C152.829 45.0318 149.024 45.9434 145.051 45.9434C134.479 45.9434 125.938 39.2753 125.938 28.6242C125.938 20.024 131.794 10.0764 145.378 10.0764C148.598 10.0764 151.233 10.5025 157.03 13.029C157.188 13.138 157.674 13.356 158.159 13.356C158.536 13.356 158.645 13.0884 159.18 12.1175C159.289 11.8499 159.606 11.5824 159.933 11.5824C160.626 11.5824 160.735 12.4444 160.795 13.247L161.548 20.8266" fill="#334059"/>
<path d="M109.729 10.6115C111.284 10.661 112.84 10.7204 113.375 10.7204C114.019 10.7204 115.902 10.6709 117.725 10.6115C119.498 10.5619 121.163 10.5025 121.272 10.5025C121.599 10.5025 122.292 10.5025 122.292 11.2555C122.292 11.85 121.965 11.8995 120.202 12.1175C118.537 12.3355 117.784 13.247 117.467 15.833C117.199 18.1415 117.15 22.61 117.15 25.0276C117.15 28.9016 117.15 37.2342 117.685 40.6723C118.002 42.7728 118.547 44.1104 121.123 44.1104C121.658 44.1104 122.411 44.1104 122.411 44.8139C122.411 45.7254 121.232 45.6759 121.014 45.6759C120.479 45.6759 118.814 45.6263 117.1 45.5173C115.436 45.4083 113.771 45.3588 113.127 45.3588C112.533 45.3588 110.71 45.4083 109.045 45.5173C107.381 45.5669 105.875 45.6759 105.875 45.6759C105.449 45.6759 104.914 45.5173 104.914 44.9229C104.914 44.3878 105.34 44.3284 106.36 44.1203C108.025 43.7438 108.936 43.2088 109.253 41.8117C109.788 39.5032 109.788 33.7962 109.788 27.0191C109.788 22.2831 109.788 15.2385 108.926 13.4154C108.391 12.2364 107.42 12.1274 105.974 12.0184C105.597 12.0184 105.003 11.8599 105.003 11.2158C105.003 10.5124 105.696 10.5124 105.974 10.5124C106.568 10.5124 108.173 10.5718 109.729 10.6214" fill="#334059"/>
<path d="M99.6326 18.2406C99.6822 18.3991 99.7416 18.9936 99.7416 19.1026C99.7416 19.1522 99.6921 19.8061 99.0976 19.8061C98.2951 19.8061 98.2356 19.6476 97.4331 17.983C96.0955 15.2385 92.3304 11.9094 88.4663 11.9094C85.3552 11.9094 82.5611 13.8415 82.5611 17.0219C82.5611 20.2024 86.2667 21.8075 90.1903 22.8875C93.7374 23.8584 102.159 26.276 102.159 34.3411C102.159 40.1472 97.7006 45.9533 89.5958 45.9533C85.1372 45.9533 82.0261 44.2887 80.0346 43.3178C79.5491 43.9122 79.5491 43.9618 79.0141 45.1507C78.8556 45.4678 78.6376 45.9533 78.1026 45.9533C77.409 45.9533 77.3495 45.4678 77.3 44.5563L76.547 35.0347C76.4975 34.2817 76.438 33.4791 77.2406 33.4791C77.7756 33.4791 78.0431 34.0141 78.3701 34.7672C80.4607 39.6122 84.0077 44.0113 89.1103 44.0113C93.7275 44.0113 95.9865 40.6228 95.9865 37.9377C95.9865 34.0141 92.1224 32.2902 87.9313 30.9427C82.7791 29.2781 81.0551 28.1982 79.7176 26.9101C77.7855 25.0276 76.547 22.3425 76.547 19.9151C76.547 15.506 80.0346 10.017 88.4069 10.017C91.0919 10.017 92.915 10.552 96.3035 11.7905C96.68 11.414 96.7296 11.305 97.1655 10.3935C97.3241 10.0665 97.542 9.90799 97.8591 9.90799C98.6121 9.90799 98.6616 10.443 98.7211 11.0375L99.6326 18.2406Z" fill="#334059"/>
<path d="M69.1358 32.8153C69.1853 38.1359 68.3333 40.8308 65.6977 43.189C63.3396 45.2894 60.3276 46.092 57.8011 46.092C53.0254 46.092 49.8053 43.4565 49.8053 40.1274C49.8053 38.2449 51.2023 36.0453 53.9964 36.0453C56.5725 36.0453 57.702 37.8783 57.702 39.2753C57.702 39.9193 57.484 40.4048 57.3255 40.6723C56.4635 42.2873 56.4139 42.4459 56.4139 42.9314C56.4139 43.9519 57.484 44.2194 58.0785 44.2194C61.249 44.2194 61.8931 41.2668 61.8931 32.3892C61.8931 29.2682 61.8931 16.7941 61.5165 14.426C61.1896 12.494 59.535 12.058 57.5434 12.0085C56.8499 12.0085 56.4139 11.85 56.4139 11.2555C56.4139 10.552 56.949 10.5025 57.5434 10.5025C58.0785 10.5025 59.634 10.552 61.249 10.6115C62.8046 10.661 64.4196 10.77 65.0042 10.77C65.5887 10.7204 67.2632 10.661 68.8683 10.661C70.4734 10.661 72.0884 10.552 72.6234 10.552C73.1584 10.552 73.8619 10.661 73.8619 11.305C73.8619 12.0085 73.2179 12.058 72.6829 12.058C70.5328 12.2166 69.8888 13.2371 69.6807 14.2081C69.0863 16.7841 69.0367 24.3142 69.0863 27.3857L69.1358 32.8153Z" fill="#334059"/>
<path d="M43.9596 33.0828C43.9596 34.4303 43.8506 44.6454 43.6326 45.1805C43.5237 45.448 43.1471 45.7155 42.8796 45.7155C42.5031 45.7155 42.1762 45.557 41.4826 44.8535C34.7154 38.0764 23.6581 25.3348 19.8435 20.6582C19.794 22.3822 19.7346 34.2123 19.8435 37.2243C19.8931 39.4239 20.1705 41.9009 21.8846 42.9214C23.4996 43.8924 24.4607 44.051 25.2632 44.051C25.5902 44.051 26.1252 44.051 26.1252 44.7544C26.1252 45.3489 25.6397 45.557 25.2137 45.557C24.6192 45.557 23.9256 45.448 23.6581 45.448C22.7961 45.339 21.7261 45.23 19.685 45.23C18.506 45.23 15.9794 45.2796 14.5824 45.3885C14.2653 45.4381 12.7593 45.6065 12.4324 45.6065C11.5208 45.6065 11.4118 44.903 11.4118 44.7445C11.4118 44.1005 11.9469 44.0411 13.0764 43.9321C15.7615 43.6645 17.535 42.9115 17.535 37.1055C17.535 33.4494 17.535 24.6808 17.426 21.8868C17.1585 14.2477 13.0764 12.3652 11.3029 12.0481C10.7084 11.9391 10.2328 11.7806 10.2328 11.2456C10.2328 10.4926 11.0353 10.334 11.3623 10.334C11.7883 10.334 13.8888 10.443 14.2653 10.443C15.6624 10.443 18.179 10.4926 20.5966 10.552C25.6992 16.4176 35.736 27.4947 41.5322 33.5089C41.5916 32.9144 41.6411 21.8967 41.4826 18.1316C41.3736 16.0311 41.2151 12.3751 36.2215 11.949C35.845 11.8995 35.2505 11.7311 35.2505 11.1465C35.2505 10.8195 35.518 10.3935 36.2215 10.3935C36.8655 10.3935 38.0445 10.443 39.2335 10.5025C40.4125 10.552 41.7006 10.6115 42.5031 10.6115C43.2561 10.6115 44.6532 10.5619 45.9412 10.4529C47.2292 10.4034 48.4083 10.344 48.6263 10.344C49.0622 10.344 49.6468 10.5619 49.6468 11.1465C49.6468 11.8401 48.9532 11.949 48.3092 12.0085C43.8506 12.385 43.8011 16.6355 43.8011 18.2505L43.9596 33.0927" fill="#334059"/>
</g>
<defs>
<clipPath id="clip0_11_1609">
<rect width="175.451" height="56" fill="white" transform="translate(0.334717)"/>
</clipPath>
</defs>
</svg>
