<svg width="178" height="57" viewBox="0 0 178 57" fill="none" xmlns="http://www.w3.org/2000/svg">
<g clip-path="url(#clip0_11_1601)">
<path d="M163.25 21.02C163.36 21.73 163.41 22.7 162.6 22.7C161.95 22.7 161.63 22.05 161.46 21.78C159.89 18.52 155.82 12.12 148.29 12.12C139.51 12.12 136.32 21.29 136.32 28.13C136.32 37.9 141.85 44.41 148.13 44.41C150.41 44.41 153.44 43.43 154.69 41.86C155.5 40.94 155.56 39.91 155.56 38.5C155.56 32.21 155.29 31.34 152.04 30.9C149.93 30.63 149.71 30.52 149.71 29.92C149.71 29.38 149.87 29.16 150.63 29.16C151.99 29.16 156.65 29.16 158.38 29.11C159.73 29.06 165.59 28.89 166.78 28.89C167.05 28.89 167.65 28.89 167.65 29.54C167.65 30.08 167.38 30.14 166.4 30.35C163.26 31.06 163.09 31.11 162.93 33.61C162.82 34.86 162.55 41.37 162.49 41.43C162.22 41.81 159.62 43.17 158.16 43.82C154.47 45.45 150.63 46.37 146.62 46.37C135.95 46.37 127.33 39.64 127.33 28.89C127.33 20.21 133.24 10.17 146.95 10.17C150.2 10.17 152.86 10.6 158.71 13.15C158.87 13.26 159.36 13.48 159.85 13.48C160.23 13.48 160.34 13.21 160.88 12.23C160.99 11.96 161.31 11.69 161.64 11.69C162.34 11.69 162.45 12.56 162.51 13.37L163.27 21.02" fill="#F4F6FA"/>
<path d="M110.97 10.71C112.54 10.76 114.11 10.82 114.65 10.82C115.3 10.82 117.2 10.77 119.04 10.71C120.83 10.66 122.51 10.6 122.62 10.6C122.95 10.6 123.65 10.6 123.65 11.36C123.65 11.96 123.32 12.01 121.54 12.23C119.86 12.45 119.1 13.37 118.78 15.98C118.51 18.31 118.46 22.82 118.46 25.26C118.46 29.17 118.46 37.58 119 41.05C119.32 43.17 119.87 44.52 122.47 44.52C123.01 44.52 123.77 44.52 123.77 45.23C123.77 46.15 122.58 46.1 122.36 46.1C121.82 46.1 120.14 46.05 118.41 45.94C116.73 45.83 115.05 45.78 114.4 45.78C113.8 45.78 111.96 45.83 110.28 45.94C108.6 45.99 107.08 46.1 107.08 46.1C106.65 46.1 106.11 45.94 106.11 45.34C106.11 44.8 106.54 44.74 107.57 44.53C109.25 44.15 110.17 43.61 110.49 42.2C111.03 39.87 111.03 34.11 111.03 27.27C111.03 22.49 111.03 15.38 110.16 13.54C109.62 12.35 108.64 12.24 107.18 12.13C106.8 12.13 106.2 11.97 106.2 11.32C106.2 10.61 106.9 10.61 107.18 10.61C107.78 10.61 109.4 10.67 110.97 10.72" fill="#F4F6FA"/>
<path d="M100.78 18.41C100.83 18.57 100.89 19.17 100.89 19.28C100.89 19.33 100.84 19.99 100.24 19.99C99.4301 19.99 99.3701 19.83 98.5601 18.15C97.2101 15.38 93.4101 12.02 89.5101 12.02C86.3701 12.02 83.5501 13.97 83.5501 17.18C83.5501 20.39 87.2901 22.01 91.2501 23.1C94.8301 24.08 103.33 26.52 103.33 34.66C103.33 40.52 98.8301 46.38 90.6501 46.38C86.1501 46.38 83.0101 44.7 81.0001 43.72C80.5101 44.32 80.5101 44.37 79.9701 45.57C79.8101 45.89 79.5901 46.38 79.0501 46.38C78.3501 46.38 78.2901 45.89 78.2401 44.97L77.4801 35.36C77.4301 34.6 77.3701 33.79 78.1801 33.79C78.7201 33.79 78.9901 34.33 79.3201 35.09C81.4301 39.98 85.0101 44.42 90.1601 44.42C94.8201 44.42 97.1001 41 97.1001 38.29C97.1001 34.33 93.2001 32.59 88.9701 31.23C83.7701 29.55 82.0301 28.46 80.6801 27.16C78.7301 25.26 77.4801 22.55 77.4801 20.1C77.4801 15.65 81.0001 10.11 89.4501 10.11C92.1601 10.11 94.0001 10.65 97.4201 11.9C97.8001 11.52 97.8501 11.41 98.2901 10.49C98.4501 10.16 98.6701 10 98.9901 10C99.7501 10 99.8001 10.54 99.8601 11.14L100.78 18.41Z" fill="#F4F6FA"/>
<path d="M70 33.12C70.05 38.49 69.19 41.21 66.53 43.59C64.15 45.71 61.11 46.52 58.56 46.52C53.74 46.52 50.49 43.86 50.49 40.5C50.49 38.6 51.9 36.38 54.72 36.38C57.32 36.38 58.46 38.23 58.46 39.64C58.46 40.29 58.24 40.78 58.08 41.05C57.21 42.68 57.16 42.84 57.16 43.33C57.16 44.36 58.24 44.63 58.84 44.63C62.04 44.63 62.69 41.65 62.69 32.69C62.69 29.54 62.69 16.95 62.31 14.56C61.98 12.61 60.31 12.17 58.3 12.12C57.6 12.12 57.16 11.96 57.16 11.36C57.16 10.65 57.7 10.6 58.3 10.6C58.84 10.6 60.41 10.65 62.04 10.71C63.61 10.76 65.24 10.87 65.83 10.87C66.42 10.82 68.11 10.76 69.73 10.76C71.35 10.76 72.98 10.65 73.52 10.65C74.06 10.65 74.77 10.76 74.77 11.41C74.77 12.12 74.12 12.17 73.58 12.17C71.41 12.33 70.76 13.36 70.55 14.34C69.95 16.94 69.9 24.54 69.95 27.64L70 33.12Z" fill="#F4F6FA"/>
<path d="M44.59 33.39C44.59 34.75 44.48 45.06 44.26 45.6C44.15 45.87 43.77 46.14 43.5 46.14C43.12 46.14 42.79 45.98 42.09 45.27C35.26 38.43 24.1 25.57 20.25 20.85C20.2 22.59 20.14 34.53 20.25 37.57C20.3 39.79 20.58 42.29 22.31 43.32C23.94 44.3 24.91 44.46 25.72 44.46C26.05 44.46 26.59 44.46 26.59 45.17C26.59 45.77 26.1 45.98 25.67 45.98C25.07 45.98 24.3701 45.87 24.1 45.87C23.2301 45.76 22.15 45.65 20.09 45.65C18.9 45.65 16.35 45.7 14.94 45.81C14.62 45.86 13.1 46.03 12.77 46.03C11.85 46.03 11.74 45.32 11.74 45.16C11.74 44.51 12.28 44.45 13.42 44.34C16.13 44.07 17.92 43.31 17.92 37.45C17.92 33.76 17.92 24.91 17.81 22.09C17.54 14.38 13.42 12.48 11.63 12.16C11.03 12.05 10.55 11.89 10.55 11.35C10.55 10.59 11.36 10.43 11.69 10.43C12.12 10.43 14.24 10.54 14.62 10.54C16.03 10.54 18.57 10.59 21.01 10.65C26.16 16.57 36.2901 27.75 42.1401 33.82C42.2001 33.22 42.25 22.1 42.09 18.3C41.98 16.18 41.82 12.49 36.7801 12.06C36.4001 12.01 35.8001 11.84 35.8001 11.25C35.8001 10.92 36.0701 10.49 36.7801 10.49C37.43 10.49 38.62 10.54 39.82 10.6C41.01 10.65 42.31 10.71 43.12 10.71C43.88 10.71 45.2901 10.66 46.59 10.55C47.89 10.5 49.08 10.44 49.3 10.44C49.74 10.44 50.33 10.66 50.33 11.25C50.33 11.95 49.6301 12.06 48.98 12.12C44.48 12.5 44.43 16.79 44.43 18.42L44.59 33.4" fill="#F4F6FA"/>
</g>
<defs>
<clipPath id="clip0_11_1601">
<rect width="177.08" height="56.52" fill="white" transform="translate(0.560059)"/>
</clipPath>
</defs>
</svg>
